<svg xmlns="http://www.w3.org/2000/svg" viewBox="0 0 160 160.93"><defs><style>.cls-1{fill:none;}.cls-2{fill:#fff;}.cls-3{fill:#6ebb44;}</style></defs><g id="Layer_2" data-name="Layer 2"><g id="_1920_x_1080_px_Layout_1" data-name="1920 x 1080 px Layout 1"><rect class="cls-1" width="160" height="160.93"/><rect class="cls-1" x="22.99" y="23.63" width="114.02" height="113.67"/><circle class="cls-2" cx="80" cy="80.47" r="56.85"/><path class="cls-3" d="M80,23.62A56.84,56.84,0,0,0,23.48,74.44H40.69V72.91a31,31,0,0,1,31-31V54A18.94,18.94,0,0,0,52.74,72.91v1.53H72.87V72.91a31,31,0,0,1,31-31V54a18.93,18.93,0,0,0-18.9,18.92v1.53h18.9v12H84.93v25.24H72.87V86.49H52.74v25.24H40.69V86.49H23.48A56.85,56.85,0,1,0,80,23.62"/></g></g></svg>